HIERARCHY
ROOT Bip001_Pelvis
{
  OFFSET 34.4345 95.6767 -26.8758
  CHANNELS 6 Xposition Yposition Zposition Zrotation Xrotation Yrotation
  JOINT Bip001_Spine
  {
    OFFSET 1.4188e-005 10.2191 -0.0116013
    CHANNELS 3 Zrotation Xrotation Yrotation
    JOINT Bip001_L_Thigh
    {
      OFFSET 11.0458 -10.2192 0.0116197
      CHANNELS 3 Zrotation Xrotation Yrotation
      JOINT Bip001_L_Calf
      {
        OFFSET -0.707118 -44.0221 0.360014
        CHANNELS 3 Zrotation Xrotation Yrotation
        JOINT Bip001_L_Foot
        {
          OFFSET -0.651902 -40.5938 -3.56146
          CHANNELS 3 Zrotation Xrotation Yrotation
          JOINT Bip001_L_Toe0
          {
            OFFSET 0.0530839 -10.2181 13.1504
            CHANNELS 3 Zrotation Xrotation Yrotation
            End Site
            {
              OFFSET -1.02532e-005 0 7.55606
            }
          }
        }
      }
    }
    JOINT Bip001_R_Thigh
    {
      OFFSET -11.0458 -10.2191 0.0115893
      CHANNELS 3 Zrotation Xrotation Yrotation
      JOINT Bip001_R_Calf
      {
        OFFSET 0.706994 -44.0221 0.35984
        CHANNELS 3 Zrotation Xrotation Yrotation
        JOINT Bip001_R_Foot
        {
          OFFSET 0.651786 -40.5938 -3.5613
          CHANNELS 3 Zrotation Xrotation Yrotation
          JOINT Bip001_R_Toe0
          {
            OFFSET -0.0531479 -10.2181 13.1504
            CHANNELS 3 Zrotation Xrotation Yrotation
            End Site
            {
              OFFSET -1.02894e-005 0 7.55606
            }
          }
        }
      }
    }
    JOINT Bip001_Spine1
    {
      OFFSET 1.87041e-005 14.5736 1.08638
      CHANNELS 3 Zrotation Xrotation Yrotation
      JOINT Bip001_Spine2
      {
        OFFSET 2.24614e-005 14.5058 -1.69078
        CHANNELS 3 Zrotation Xrotation Yrotation
        JOINT Bip001_Neck
        {
          OFFSET 2.20278e-005 15.3945 -0.489414
          CHANNELS 3 Zrotation Xrotation Yrotation
          JOINT Bip001_L_Clavicle
          {
            OFFSET 6.06036 -0.000579998 0.00836775
            CHANNELS 3 Zrotation Xrotation Yrotation
            JOINT Bip001_L_UpperArm
            {
              OFFSET 11.5509 -0.0600302 0.00193952
              CHANNELS 3 Zrotation Xrotation Yrotation
              JOINT Bip001_L_Forearm
              {
                OFFSET 25.9523 0.0806089 -2.15551
                CHANNELS 3 Zrotation Xrotation Yrotation
                JOINT Bip001_L_Hand
                {
                  OFFSET 32.2475 0.153767 1.63968
                  CHANNELS 3 Zrotation Xrotation Yrotation
                  JOINT Bip001_L_Finger0
                  {
                    OFFSET 6.04639 -2.20976 5.90322
                    CHANNELS 3 Zrotation Xrotation Yrotation
                    End Site
                    {
                      OFFSET 4.22375 -1.43895 0.606485
                    }
                  }
                  JOINT Bip001_L_Finger1
                  {
                    OFFSET 11.0826 -0.704819 -0.198153
                    CHANNELS 3 Zrotation Xrotation Yrotation
                    End Site
                    {
                      OFFSET 6.20027 -0.397518 -0.0787166
                    }
                  }
                }
              }
            }
          }
          JOINT Bip001_R_Clavicle
          {
            OFFSET -6.06037 -0.000563197 0.00835105
            CHANNELS 3 Zrotation Xrotation Yrotation
            JOINT Bip001_R_UpperArm
            {
              OFFSET -11.5509 -0.0599978 0.00190698
              CHANNELS 3 Zrotation Xrotation Yrotation
              JOINT Bip001_R_Forearm
              {
                OFFSET -25.9523 0.0806822 -2.15589
                CHANNELS 3 Zrotation Xrotation Yrotation
                JOINT Bip001_R_Hand
                {
                  OFFSET -32.2475 0.153859 1.63989
                  CHANNELS 3 Zrotation Xrotation Yrotation
                  JOINT Bip001_R_Finger0
                  {
                    OFFSET -6.04641 -2.20976 5.90317
                    CHANNELS 3 Zrotation Xrotation Yrotation
                    End Site
                    {
                      OFFSET -4.22376 -1.43895 0.60647
                    }
                  }
                  JOINT Bip001_R_Finger1
                  {
                    OFFSET -11.0826 -0.704794 -0.198182
                    CHANNELS 3 Zrotation Xrotation Yrotation
                    End Site
                    {
                      OFFSET -6.20028 -0.397504 -0.0787333
                    }
                  }
                }
              }
            }
          }
          JOINT Bip001_Head
          {
            OFFSET 1.09673e-005 11.2744 2.05948
            CHANNELS 3 Zrotation Xrotation Yrotation
            End Site
            {
              OFFSET 2.89576e-005 20.8808 -2.77728e-005
            }
          }
        }
      }
    }
  }
}
MOTION
Frames:	12
Frame Time:	0.04
38.3765 91.2731 -32.8786 -6.28645 -9.16762 3.73587 0.198423 3.78507 0.712066 13.5669 -12.9797 7.82957 -5.8598 39.951 -0.0149368 12.305 -16.6894 1.21689 2.70216 -7.78219 -1.57475 -3.8607 -6.05588 -1.6193 6.01186 28.2004 -0.85836 -11.8833 -9.76429 -11.1393 4.7727 -14.7229 4.80981 0.343608 7.57223 1.41824 0.347385 7.57197 1.41714 1.54486 -5.75905 -2.32228 -23.5968 8.51778 -6.89506 -39.4104 37.7741 -4.48039 12.8548 -2.86883 -26.749 6.72429 0.757815 -2.68342 1.76556e-031 3.18055e-015 -3.18055e-015 -0 0 3.18055e-015 14.2748 13.1327 27.2184 47.1027 -25.8542 32.045 -47.2551 5.36359 69.2849 -48.8267 -24.2416 -0.784202 -3.18055e-015 0 -0 -3.18055e-015 3.18056e-015 3.18055e-015 -5.4685 5.06739 -0.40026 
38.4017 91.7207 -32.8714 -5.7343 -8.78013 6.73417 -0.101526 3.78182 1.14535 13.0666 -13.6332 6.50045 -5.21749 38.5424 -1.97277 11.2885 -16.437 1.07092 2.57119 -7.2222 -1.65206 -3.39343 -4.98846 -2.10316 5.71024 26.1294 -1.00534 -12.0209 -8.30736 -13.0319 4.82807 -14.768 4.72298 -0.27991 7.56077 2.30498 -0.27991 7.56083 2.30498 0.0618368 -4.4528 -5.10375 -22.7646 6.34112 -4.74982 -35.6723 40.0525 -6.24632 12.3103 -2.90256 -27.7729 5.84209 0.587795 -2.43862 -6.36111e-015 6.36111e-015 -3.18055e-015 -6.36111e-015 9.54167e-015 -3.18055e-015 14.3377 13.0926 33.3173 38.9865 -20.5608 36.516 -48.4874 4.02211 53.8944 -60.7422 -15.7338 -3.07924 -1.59028e-015 0 1.59028e-015 -1.59028e-015 3.18056e-015 3.97569e-015 -3.15134 5.64151 -4.02198 
38.4429 92.12 -32.8325 -5.30596 -8.51937 9.48716 -0.317463 3.79737 1.50033 12.4609 -14.0646 5.62497 -4.14614 37.186 -4.43315 10.7931 -15.7728 0.979495 2.61739 -7.09502 -1.75923 -2.87304 -3.87545 -2.49428 5.31236 24.1384 -1.24115 -11.9605 -6.94334 -14.665 4.81732 -14.7006 4.63338 -0.737163 7.58502 3.03179 -0.737164 7.58503 3.03179 0.316603 -1.65356 -7.97038 -22.681 2.74479 -3.53303 -32.6436 42.5536 -7.88259 12.5481 -2.00495 -27.8899 5.56758 0.232103 -2.87736 6.36111e-015 -6.36111e-015 -0 3.18055e-015 -9.54167e-015 -0 12.526 9.99222 34.5691 60.528 -34.9963 50.7145 -46.3847 5.41399 56.9516 -49.5715 -23.4802 -2.38333 -6.36111e-015 6.36111e-015 -6.36111e-015 -3.18055e-015 0 -3.18055e-015 -3.12356 4.16984 -6.84138 
38.5354 92.4421 -32.7985 -5.17083 -8.63291 11.3868 -0.53255 3.75762 1.16727 12.4013 -13.7833 5.77899 -3.4874 35.9738 -6.56549 11.8538 -14.4366 0.923054 2.75155 -7.69066 -1.83462 -1.95879 -2.5636 -2.97738 4.12777 22.276 -0.855752 -11.5705 -5.80362 -15.2931 4.78554 -14.5871 4.55289 -1.14863 7.50337 2.37958 -1.13562 7.50329 2.37734 5.51308 0.145201 -10.4984 -24.2369 -0.550775 -2.40627 -37.1284 42.0109 -5.13894 13.2465 -0.970199 -27.6799 6.10231 0.498543 -2.84616 5.29669e-031 -9.54166e-015 3.18055e-015 5.29669e-031 -9.54167e-015 3.18055e-015 11.0348 8.2767 32.1092 45.0081 -31.1709 46.8359 -39.951 1.6277 49.8512 -40.5224 -20.5316 -1.05203 -7.06225e-031 6.36111e-015 6.36111e-015 3.18055e-015 3.18056e-015 4.77083e-015 -8.59992 3.72681 -6.53627 
38.9217 92.742 -32.8495 -4.52293 -9.63895 10.1482 -0.444047 3.63361 0.307967 11.4346 -11.2027 8.35716 -1.89773 34.4384 -8.07656 10.9862 -14.3247 0.860697 2.46161 -7.38307 -1.53443 -2.38287 -0.969423 -2.58341 2.61895 21.1233 -0.205225 -10.7468 -5.51618 -13.7413 4.71833 -14.4334 4.52051 -0.923679 7.26442 0.658241 -0.915134 7.26441 0.652483 5.20546 1.57949 -9.27261 -24.2785 -1.51126 -3.1554 -44.334 37.7179 3.39055 13.3634 -0.0663836 -28.8787 7.12405 1.24937 -2.29456 -3.18055e-015 -6.36111e-015 -3.18055e-015 -3.18055e-015 0 -0 11.0871 6.36254 31.1341 23.6915 -18.934 41.1891 -30.617 -5.49245 36.3192 -35.527 -22.601 -1.00363 3.18055e-015 -6.36111e-015 -1.59028e-015 3.18055e-015 -3.18056e-015 -1.59028e-015 -9.4195 3.29899 -5.1217 
39.2772 93.1923 -32.942 -4.1309 -9.63302 5.89454 -0.207926 3.53072 -0.0826509 10.1552 -8.39846 10.4511 -1.92244 31.428 -6.3051 11.3174 -13.0105 0.724673 2.34497 -7.76173 -1.16927 -3.65794 -0.90295 -1.81179 1.56501 19.7345 0.591603 -9.64612 -5.42884 -10.8062 4.54175 -14.0768 4.51302 -0.416912 7.06168 -0.173996 -0.415138 7.06176 -0.162813 0.1743 -1.17319 -6.24793 -22.6328 2.40341 -3.23667 -46.5897 38.2992 6.67861 12.9433 -0.273589 -28.0234 5.40865 0.749716 -3.10598 1.76556e-031 -3.18055e-015 3.18055e-015 -0 0 3.18055e-015 10.5038 7.86974 31.4673 16.795 -9.72943 38.7309 -30.7126 -12.8284 31.1769 -30.4194 -25.512 0.451502 -6.36111e-015 -3.18055e-015 -6.36111e-015 -3.18055e-015 -3.18056e-015 -6.36111e-015 -6.30278 6.17994 -4.3077 
39.0926 93.6298 -33.3431 -4.96678 -8.05907 1.40521 0.0525527 3.42127 0.135478 10.4017 -7.96423 11.1535 -2.96127 29.1417 -2.98755 11.6848 -11.8017 0.646859 2.36032 -8.22401 -1.02073 -3.45861 -2.39113 -0.161353 1.14138 17.4523 0.693508 -8.59013 -4.60263 -8.74687 4.30026 -13.5533 4.45713 0.0982805 6.84282 0.270553 0.097839 6.8428 0.269425 -0.911577 -7.05522 -5.65203 -22.196 8.23613 -1.83095 -47.2068 42.183 5.61441 13.1099 -1.13171 -24.6194 1.81307 -0.0145832 -3.06773 3.18055e-015 3.18055e-015 -1.59028e-015 0 3.18056e-015 -0 10.1566 13.454 31.3446 18.6335 -11.4941 36.3916 -28.0365 -14.5048 35.988 -27.8191 -22.6796 2.00601 -3.18055e-015 6.36111e-015 3.18055e-015 -3.18055e-015 6.36111e-015 3.18055e-015 -3.63585 7.90361 -4.52195 
39.2809 94.0157 -33.3942 -5.04061 -7.74845 -1.98454 0.201437 3.21078 0.360413 9.18722 -6.28571 10.4963 -2.67351 26.7259 0.208144 11.2956 -10.7924 0.527197 2.39331 -8.11023 -0.957811 -4.07729 -2.02138 -1.77537 0.261415 15.2449 1.25788 -7.06686 -4.38421 -4.93248 4.06304 -13.0111 4.37066 0.383517 6.42274 0.711176 0.383513 6.42275 0.711178 0.363774 -6.65156 -5.60189 -23.647 8.00476 -2.95087 -48.8555 45.6732 6.33693 13.8467 -0.273907 -22.3098 1.17906 0.972234 -2.07393 3.18055e-015 -6.36111e-015 1.59028e-015 -0 0 1.59028e-015 11.647 13.7523 30.2217 20.9126 -10.9295 33.6273 -29.5956 -10.6621 42.9804 -22.6705 -16.8585 1.33698 -9.54166e-015 7.95139e-015 6.36111e-015 -9.54166e-015 3.18056e-015 7.95139e-015 -3.63947 5.26512 -4.29989 
39.5167 94.3753 -33.3512 -4.56226 -7.74221 -4.34086 0.196361 3.05852 0.362234 7.56385 -4.39523 10.3284 -1.93539 23.9437 2.03414 10.6315 -9.75083 0.398777 2.25749 -8.12763 -0.557273 -5.07165 -1.37845 -3.92093 -0.443283 13.3643 1.45518 -5.40222 -4.39249 -1.04335 3.79305 -12.4028 4.30195 0.372349 6.11817 0.715539 0.373215 6.11821 0.715608 2.24547 -6.02114 -5.34293 -24.9953 7.42179 -3.80164 -50.6176 47.1791 7.05141 15.852 2.16175 -21.5526 0.841395 2.00831 -1.76508 3.18055e-015 0 -0 3.18055e-015 0 7.95139e-016 12.2568 13.2552 27.9343 26.9999 -11.3023 30.7497 -37.6685 -0.264577 51.5539 -16.6841 -13.7487 0.251614 6.36111e-015 7.95139e-016 -6.36111e-015 6.36111e-015 3.18056e-015 -6.36111e-015 -3.90071 3.06545 -3.62241 
39.3208 94.7899 -33.3572 -4.39545 -7.4476 -6.85328 0.217371 2.97622 0.209432 7.13432 -2.6408 11.4696 -2.01756 21.0879 3.48044 9.2658 -9.23542 0.313455 2.15829 -7.66768 -0.401426 -5.19046 -0.908109 -3.29336 -0.793519 10.871 1.46719 -4.3676 -3.50586 0.673919 3.57162 -11.8512 4.17688 0.432261 5.95315 0.408384 0.428369 5.95314 0.408075 2.74473 -5.72753 -4.28296 -25.1262 7.27863 -3.96062 -49.8463 47.0183 5.75316 16.7521 4.0337 -21.9357 1.51414 2.23149 -1.43864 -4.41391e-032 3.18055e-015 7.95139e-016 0 1.59028e-015 -0 14.6247 13.478 26.4232 31.0309 -11.7214 25.2851 -43.8369 6.06077 60.5934 -12.5008 -12.2957 0.315017 3.18055e-015 9.93923e-016 -7.95139e-016 3.18055e-015 2.18663e-015 -1.59028e-015 -2.83316 1.41804 -2.79606 
39.3051 95.0953 -33.1349 -3.66233 -7.53965 -9.29921 0.132259 2.96218 -0.200092 5.74458 -0.428255 12.4001 -1.73289 17.865 5.69151 7.3434 -8.87458 0.246714 1.80174 -6.57614 -0.263186 -5.97908 -0.811412 -2.35804 -1.15852 9.80856 1.35225 -3.44451 -3.31083 2.52892 3.41074 -11.4378 4.07446 0.261556 5.92409 -0.40744 0.268646 5.924 -0.407095 0.987992 -5.05699 -1.94754 -23.0114 7.08174 -3.98816 -48.7725 45.7222 4.00812 16.5522 3.95982 -22.6629 3.50845 2.10905 -2.07594 8.82781e-032 3.18055e-015 -1.59028e-015 3.18055e-015 4.77083e-015 -2.38542e-015 19.1136 13.3839 25.6356 32.4138 -8.58703 18.2465 -45.1179 7.32755 64.2659 -6.43391 -11.8455 2.89919 -4.55184e-032 -4.37326e-015 -5.96354e-016 -1.03451e-031 -5.96354e-015 -9.93923e-016 -0.261579 0.0466174 -1.55575 
39.2222 95.2626 -32.9868 -3.35362 -7.54312 -11.0061 0.141303 2.95056 -0.51797 4.67975 0.924733 13.7696 -0.886891 15.7222 6.21976 6.43543 -8.17926 0.19108 1.6035 -6.22828 -0.141107 -6.51923 -0.761821 -1.78516 -1.08716 8.98522 1.34948 -2.83656 -3.18661 3.77121 3.29888 -11.1463 4.00118 0.313056 5.89967 -1.04542 0.311483 5.89971 -1.0455 0.863857 -4.21592 -0.442738 -22.1393 6.70047 -5.23858 -47.9151 43.9218 2.36291 15.6293 2.11991 -23.566 4.90711 2.07734 -2.22536 3.18055e-015 0 -0 -3.18055e-015 0 -0 21.3235 12.3458 23.9858 34.555 -2.57865 11.3209 -45.0553 7.44955 64.0764 0.640542 -11.2055 5.60376 2.38542e-015 -2.48481e-015 7.95139e-016 2.38542e-015 -5.51628e-015 7.95139e-016 0.68083 -1.57091 -0.355368 
